<?xml version="1.0" encoding="UTF-8"?><svg id="Capa_1" xmlns="http://www.w3.org/2000/svg" viewBox="0 0 748.46 256.72"><defs><style>.cls-1,.cls-2{fill:#fff;}.cls-3{fill:#e01914;}.cls-2{fill-rule:evenodd;}</style></defs><g><path class="cls-1" d="M682.92,146.75h-101.15l50.57-70.01,50.57,70.01Z"/><path class="cls-3" d="M587.31,131.44l3.92-5.42c-10.02-10.32-16.19-24.4-16.19-39.92,0-31.66,25.66-57.31,57.32-57.31s57.32,25.66,57.32,57.31c0,15.52-6.17,29.6-16.19,39.92l3.92,5.42c11.66-11.58,18.87-27.62,18.87-45.34,0-35.3-28.62-63.92-63.92-63.92s-63.92,28.62-63.92,63.92c0,17.73,7.22,33.77,18.88,45.35Z"/><path class="cls-1" d="M598.25,116.08c-6.5-7.74-10.42-17.72-10.42-28.61,0-24.59,19.93-44.52,44.52-44.52s44.52,19.93,44.52,44.52c0,11.01-4,21.08-10.63,28.85l3.94,5.46c8.24-9.07,13.26-21.11,13.26-34.33,0-28.22-22.87-51.09-51.09-51.09s-51.09,22.88-51.09,51.09c0,13.11,4.94,25.06,13.05,34.1l3.94-5.47Z"/><path class="cls-1" d="M614.73,93.2c-.74-2.01-1.14-4.18-1.14-6.45,0-10.36,8.4-18.75,18.76-18.75s18.75,8.4,18.75,18.75c0,2.41-.46,4.71-1.29,6.83l4.39,6.08c2.23-3.78,3.51-8.17,3.51-12.88,0-14.01-11.35-25.36-25.36-25.36s-25.36,11.35-25.36,25.36c0,4.57,1.21,8.85,3.32,12.56l4.43-6.14Z"/><path class="cls-1" d="M605.73,105.69c-3.35-5.05-5.31-11.11-5.31-17.62,0-17.63,14.29-31.91,31.92-31.91s31.92,14.29,31.92,31.91c0,6.64-2.03,12.8-5.5,17.91l4.06,5.62c5.03-6.51,8.03-14.67,8.03-23.54,0-21.27-17.24-38.51-38.51-38.51s-38.51,17.24-38.51,38.51c0,8.75,2.92,16.81,7.83,23.27l4.07-5.65Z"/></g><path class="cls-1" d="M554.36,115.86v-50.98h-42.24v15.11c-5.35,.72-9.12,2.76-11.73,4.99-5.05-3.74-12.02-5.57-21.24-5.57-5.18,0-9.57,.51-13.29,1.55v-16.08h-81.66v29.76l2.09,1.07v20.08l-2.09,1.07v29.91h81.66v-.82c3.55,1.01,7.65,1.51,12.35,1.51,5.44,0,10.43-.61,14.83-1.82,2.9-.79,5.54-1.86,7.91-3.16,3.24,2.5,8.11,4.67,15.29,4.67,1.72,0,3.42-.13,5.08-.38h35.13v-30.09l-2.09-.81Z"/><path class="cls-1" d="M269.21,165.63c-3.96,0-7.57-.47-11.06-1.43l-5.55-1.54v-15.75h-62.95v-2.99c-4.93,2.14-10.97,3.58-17.39,4.04-1.38,.1-2.78,.15-4.17,.15-5.12,0-14.69-.73-21.22-5.62-2.53-1.88-4.33-4.02-5.61-6.25v10.66H40.48v-24.15l2.63-1.81c.17-.55,.35-1.45,.48-2.1,.12-.59,.24-1.16,.36-1.71l10.47-56.38h43.98l3.78,18.8h29.65c1.83-.74,4.01-1.2,6.59-1.2,1.34,0,2.72,.15,3.99,.43l5.91,1.33v2.56c4.74-2.85,11.19-4.17,20.14-4.21h.4c9.12,0,15.88,1.41,20.8,4.4v-3.33h33.97c2.57-.73,5.2-1.09,7.9-1.09,.41,0,.81,0,1.21,.03,4.22,.17,8.13,1.26,11.25,3.09v-2.02h65.27v1.92c5.37-2.43,11.44-3,15.94-3,11.42,0,20.89,2.81,28.13,8.35l2.97,2.28v23.74h-.68c1.31,2.81,2.09,6.25,2.09,10.49,0,7.4-2.91,24.64-29.86,24.64-5.57,0-19.46-.89-28.09-9.14l-2.34-2.24v-1.58l-1.44,4.87c-3.16,10.86-7.49,25.73-26.77,25.73Zm-13.3-27.65h3l-3-8.5v8.5Z"/><path class="cls-1" d="M71.33,106.94h7.29l-3.65-21.04-3.64,21.04Zm1.16,19.8v12.6h-24.44v-12.6c2.4-1.65,2.65-5.3,3.31-8.03l9.36-50.37h31.48l10.35,51.45c.41,2.23,1.24,6.21,3.73,6.96v12.6h-27.92v-12.6c1.74-.66,2.57-1.99,2.57-3.89,0-.74-.16-1.41-.33-2.07h-10.68c-.17,.66-.33,1.41-.33,2.07,0,1.99,1,3.4,2.9,3.89Zm57.49-39.6v4.11c2.07-3.57,4.22-5.31,8.45-5.31,.74,0,1.57,.08,2.32,.25v17.85h-1.57c-6.79,0-8.29,3.81-8.29,9.95v5.05c0,1.66,0,3.98,.33,5.63,.33,1.74,.83,2.16,2.49,2.98v11.68h-24.77v-11.85c2.65-1.74,2.4-4.14,2.4-6.88v-14.74c0-2.73,.25-5.14-2.4-6.88v-11.85h21.04Zm15.74,33.14v-14.17c-.33-14.25,4.47-19.96,22.78-20.05,19.22-.08,23.94,6.29,23.61,19.05v12.34h-26.84v4.81c-.08,2.56,.25,5.96,3.64,5.96s3.65-3.07,3.65-5.72v-1.91h19.55v13.09c-4.31,3.72-12.34,6.13-20.38,6.71-7.95,.58-15.99-.74-20.3-3.98-5.46-4.06-5.72-9.86-5.72-16.15Zm27.17-14.74v-1.99c0-2.07-.33-5.3-3.81-5.3s-3.81,3.23-3.81,5.3v1.99h7.62Zm45.47-18.4v3.23c5.3-3.56,9.94-4.47,14.08-4.3,4.05,.16,7.62,1.49,9.61,3.48,3.56,3.4,3.97,7.21,3.97,11.68v19.55c0,2.57-.25,5.47,2.32,6.88v11.68h-20.79c-1.16-5.3-1.07-10.85-1.07-16.24v-15.24c0-.33,.25-2.73-.58-4.64-1.33-1.99-3.48-3.48-6.71-1.99v19.55c0,2.57-.25,5.47,2.4,6.88v11.68h-24.35v-11.68c2.57-1.49,2.4-3.89,2.4-6.55v-15.82c0-2.82,.08-4.64-2.4-6.47v-11.68h21.13Zm62.04,11.68v-11.68h21.29v11.68c-2.32,1.58-2.9,4.81-3.65,7.38l-9.28,31.4c-3.23,11.1-5.88,20.47-19.55,20.47-3.06,0-6.05-.33-9.03-1.16v-11.35c3.73,0,6.38-1.24,7.71-4.89l-12.67-35.96c-.92-2.57-1.33-4.56-3.65-5.89v-11.68h24.94v11.68c-1.24,.59-2.15,.92-2.15,2.49,0,.91,.5,2.57,.66,3.4l3.81,12.34,3.06-12.34c.17-.83,.67-2.49,.67-3.4,0-1.57-.91-1.9-2.16-2.49Zm42.98,21.05v1.24c0,2.99-.33,7.13,3.9,7.13,2.07,0,3.73-1.74,3.73-3.98,0-4.72-5.97-5.47-9.45-6.3-9.36-2.15-17.48-3.81-17.48-15.24,0-5.47,1.32-9.86,6.05-13.09,4.14-2.73,10.19-3.56,15.07-3.56,8.29,0,16.82,1.65,23.53,6.79v12.43h-18.14v-1.91c0-2.4-.75-5.14-3.89-5.14-2.07,0-3.81,1.58-3.81,3.56,0,3.73,4.97,4.39,7.79,4.97,10.19,2.16,19.46,3.81,19.46,16.57,0,13.58-10.52,17.06-22.28,17.06-7.37,0-17.31-1.74-22.86-7.04v-13.5h18.39Z"/><path class="cls-2" d="M528.93,125.17l.04-21.6c-.56-.29-1.08-.48-1.55-.59-.47-.11-.94-.19-1.42-.21-1.41,0-2.4,.39-2.97,1.18-.56,.78-.85,2.56-.85,5.31v10.29c0,2.39,.31,4.02,.91,4.9,.61,.87,1.66,1.31,3.16,1.31,.42,0,.85-.05,1.29-.15,.43-.1,.9-.24,1.38-.44Zm0-34.59c0-2.07-.17-3.56-.5-4.45-.33-.9-.91-1.49-1.75-1.77v-10.63h19.88v48.57c0,1.6,.18,2.76,.52,3.46,.35,.7,.95,1.22,1.81,1.56v10.63h-19.16v-3.21c-1.75,1.22-3.64,2.12-5.68,2.73-2.04,.61-4.19,.91-6.44,.91-4.65,0-7.97-1.18-9.97-3.53-2-2.35-3-6.41-3-12.17v-14.72c0-6.74,1-11.37,3-13.87,1.99-2.51,5.37-3.76,10.12-3.76,1.77,0,3.6,.23,5.5,.68,1.9,.45,3.79,1.11,5.67,1.98v-2.41Z"/><path class="cls-2" d="M410.12,99.66v20.98c0,2.03,.16,3.43,.49,4.22,.32,.79,.91,1.35,1.76,1.69v11.41h-19.34v-11.41c.88-.45,1.49-1.09,1.82-1.92,.34-.83,.51-2.16,.51-3.99v-29.81c0-1.83-.17-3.15-.51-3.97-.34-.81-.94-1.45-1.82-1.9v-11.24h26.34l5.86,27.42,5.86-27.42h25.84v11.24c-.89,.42-1.52,1.05-1.87,1.88-.36,.83-.55,2.16-.55,3.99v29.81c0,1.86,.18,3.2,.55,4.01,.36,.82,.98,1.45,1.87,1.9v11.41h-23.15v-11.41c.79-.34,1.35-.9,1.67-1.69,.33-.79,.49-2.19,.49-4.22v-20.98l-8.82,38.31h-7.76l-9.24-38.31Z"/><path class="cls-2" d="M475.18,105.15v1.75h7.02v-1.75c0-2.09-.27-3.55-.81-4.38-.54-.83-1.44-1.24-2.7-1.24s-2.16,.43-2.7,1.29c-.54,.85-.81,2.3-.81,4.33Zm0,16.12c0,2.13,.26,3.61,.79,4.46,.53,.84,1.43,1.27,2.72,1.27s2.12-.43,2.68-1.29c.56-.86,.84-2.34,.84-4.44v-1.29h17.82v11.86c-2.35,2-5.41,3.52-9.22,4.56-3.8,1.04-8.19,1.57-13.16,1.57-7.4,0-12.62-1.31-15.64-3.91-3.03-2.61-4.55-7.13-4.55-13.57v-14.54c0-6.54,1.54-11.09,4.61-13.65,3.07-2.55,8.62-3.83,16.65-3.83s13.41,1.38,16.57,4.16c3.16,2.77,4.74,7.63,4.74,14.58v9.62h-24.84v4.45Z"/><g><path class="cls-1" d="M197.25,181.72c.62-.18,1.3-.32,2.04-.41,.74-.09,1.55-.14,2.45-.14,.17,0,.42,.02,.74,.08,.33,.05,.59,.08,.79,.08,.29,.05,.51,.09,.66,.13,.17,.05,.4,.1,.69,.16l.64-.19c.14,.02,.29,.07,.45,.17,.16,.1,.35,.21,.58,.33,.12-.08,.3-.17,.52-.28,.23,0,.42,.09,.56,.27,.14,.18,.24,.42,.29,.74v.72c0,.23-.02,.48-.05,.74-.02,.12,0,.31,.02,.57,.03,.26,.05,.45,.05,.6,0,.16-.04,.29-.11,.36-.08,.07-.18,.11-.3,.11-.58,0-1.15-.05-1.71-.14-.57-.1-1.13-.25-1.69-.45-.49,.09-.91,.16-1.28,.21-.29,.03-.5,.07-.64,.14-.14,.06-.21,.14-.21,.23,.06,.11,.14,.22,.25,.34,.11,.12,.23,.23,.39,.34,.11,.07,.23,.24,.36,.49,.14,.25,.28,.59,.43,1.01,.06,.17,.1,.33,.13,.48,.02,.15,.03,.3,.03,.43,0,.32-.03,.72-.09,1.2-.06,.48-.13,.87-.21,1.18-.14,.59-.24,1.08-.32,1.47-.08,.39-.14,.68-.18,.88-.03,.15-.05,.34-.07,.55-.02,.22-.03,.46-.04,.73-.02,.23-.07,.52-.18,.86-.11,.34-.21,.73-.32,1.17,0,.2-.02,.42-.07,.69-.04,.26-.11,.55-.18,.89-.05,.2-.12,.42-.22,.67-.1,.25-.19,.55-.28,.88,.03,.23,.05,.46,.07,.71-.06,.42-.12,.87-.18,1.32-.09,.65-.19,1.31-.28,1.98-.09,.67-.17,1.31-.25,1.94-.1,.19-.19,.39-.3,.62,0,.1,.02,.27,.06,.49,.04,.22,.05,.4,.05,.54,0,.16-.03,.41-.09,.74-.06,.33-.09,.57-.09,.72,0,.29,0,.74-.02,1.35-.02,.61-.02,1.07-.02,1.37,.08,.26,.14,.51,.21,.75-.05,.22-.1,.38-.15,.51-.05,.13-.13,.23-.22,.31-.27,.17-.52,.3-.75,.41-.15,.15-.28,.28-.38,.36-.1,.09-.19,.14-.26,.14-.34,0-.57-.04-.71-.14-.14-.09-.2-.21-.2-.36,.03-.5,.08-.99,.16-1.46-.03-.06-.06-.15-.1-.27-.04-.12-.1-.28-.17-.46-.07-1.19-.17-2.4-.3-3.65,.04-.9,.07-1.81,.07-2.72,0-.42,.02-.96,.06-1.61,.04-.65,.11-1.4,.21-2.25,.11-.86,.18-1.6,.23-2.24,.05-.64,.07-1.16,.07-1.57,0-.18,.02-.41,.06-.69,.04-.28,.08-.63,.12-1.04,.04-.35,.09-.66,.14-.95,.05-.28,.07-.53,.07-.76,0-.12,0-.25-.03-.38-.02-.14-.03-.26-.05-.37,.15-.38,.27-.68,.34-.92,.07-.24,.12-.39,.12-.47-.06-.2-.13-.4-.21-.59,.09-.22,.19-.6,.3-1.15,.1-.56,.22-1.28,.34-2.18v-.66c0-.26,0-.57,.02-.93l-.14-.41c-.06-.03-.17-.07-.33-.11-.16-.05-.36-.08-.6-.12l-.3,.21c-.2,.05-.4,.09-.61,.14-.2,.05-.42,.1-.65,.16-1.58,.44-3.15,.88-4.7,1.3-.12,0-.22-.04-.29-.15-.08-.09-.12-.23-.12-.4,0-.09,.04-.25,.12-.48,.07-.23,.19-.52,.36-.89,.03-.54,.07-.97,.11-1.33,.04-.35,.1-.61,.16-.8,.12-.33,.31-.62,.56-.85,.25-.23,.55-.4,.9-.52,.7-.23,1.35-.38,1.96-.46,.61-.08,1.17-.08,1.69-.02Z"/><path class="cls-1" d="M270.18,208.21c-.15-.36-.29-.7-.45-1.04-.18,.15-.34,.26-.47,.34-.13,.07-.26,.12-.38,.12s-.22-.05-.3-.13c-.07-.08-.14-.22-.21-.42,.15-.14,.32-.36,.49-.66,.17-.31,.34-.69,.49-1.14,.14-.41,.24-.79,.29-1.14,.06-.35,.09-.65,.09-.91,0-1.37-.28-2.39-.83-3.07-.55-.68-1.39-1.02-2.5-1.02-.1,0-.35,.06-.73,.18-.38,.12-.91,.31-1.57,.57l-.14-.2c.17-.35,.33-.7,.48-1.05-.01-.16-.11-.27-.28-.36-.17-.08-.43-.12-.76-.12-.3,0-.58,.06-.84,.18-.26,.12-.51,.29-.75,.5-.21,.21-.42,.43-.63,.66-.21,.23-.42,.46-.65,.69-.18,.17-.38,.34-.59,.51-.21,.18-.43,.36-.64,.56-.24,.21-.45,.43-.63,.65-.17,.22-.3,.41-.38,.58-.65,.58-1.2,1.07-1.64,1.47-.44,.4-.77,.73-.98,1l-1.76,1.21c-.15,.22-.29,.41-.4,.58-.11,.17-.22,.31-.33,.42h0c-.13,.14-.28,.27-.42,.34-.16,.07-.34,.12-.54,.12-.26,0-.49-.12-.69-.34-.21-.23-.39-.58-.56-1.05-.27-.81-.56-1.68-.87-2.62-.26-.48-.57-.84-.93-1.07-.36-.23-.78-.34-1.26-.34-.24,0-.53,.06-.85,.18-.33,.12-.69,.29-1.11,.5-.36,.23-.68,.45-.96,.66-.27,.21-.51,.42-.71,.61-.14,.15-.26,.3-.36,.43-.09,.14-.18,.24-.23,.3-.28,.21-.52,.44-.74,.69-.22,.25-.4,.51-.54,.76-.35,.31-.65,.58-.9,.84-.25,.25-.44,.49-.56,.72-.09,.11-.17,.2-.24,.27-.07,.07-.14,.14-.22,.19-.11-.14-.16-.25-.16-.35,0-.08,.01-.19,.05-.34,.03-.15,.09-.33,.18-.52,.12-.28,.25-.57,.39-.87,.55-1.63,.95-2.94,1.21-3.92,.26-.99,.38-1.66,.38-2.01,0-.66-.13-1.15-.38-1.49-.26-.34-.66-.51-1.21-.51s-1.07,.12-1.55,.36c-.49,.24-.94,.62-1.37,1.12-.5,.56-.94,1.04-1.3,1.45-.36,.4-.67,.74-.91,1-.56,.64-1.04,1.18-1.44,1.63-.4,.45-.73,.83-1,1.13-.31,.31-.58,.57-.82,.8-.24,.23-.44,.4-.59,.52-.14,.19-.26,.34-.36,.47-.1,.13-.18,.24-.24,.35-.38,.33-.68,.63-.95,.89-.27,.26-.48,.49-.63,.69-.12,.11-.24,.19-.36,.24-.11,.05-.21,.1-.28,.15-.53,.35-1.07,.69-1.61,1.03-.54,.33-1.07,.65-1.59,.95-.45,.14-.87,.25-1.24,.34-.37,.08-.67,.17-.9,.26-.4-.1-.73-.22-.99-.32-.27-.11-.48-.21-.63-.32-.21-.15-.37-.35-.48-.6-.11-.25-.16-.55-.16-.9,0-.45,.04-.86,.13-1.21,.08-.35,.2-.67,.35-.96,.11-.15,.3-.35,.57-.6,.28-.25,.62-.54,1.03-.86,.9-.7,1.61-1.26,2.13-1.68,.52-.42,.85-.71,.97-.85,.33-.15,.67-.32,1-.5,.34-.18,.67-.35,1-.5,.5-.29,.88-.61,1.13-.95,.25-.34,.38-.73,.38-1.17v-1.25c-.03-.19-.11-.34-.24-.46-.13-.12-.3-.18-.51-.18-.55,0-1.26,.22-2.13,.64-.87,.42-1.47,.84-1.79,1.25-.45,.2-.94,.46-1.46,.79-.52,.33-1.04,.72-1.55,1.17-.9,.76-1.83,1.55-2.78,2.37-.23,.18-.47,.35-.72,.5-.25,.15-.49,.31-.72,.48-.36,.31-.65,.57-.84,.8-.2,.23-.3,.43-.32,.59-.17,.14-.52,.43-.68,.51-.16,.08-.29,.15-.36,.19-.38,.22-.81,.4-1.3,.55-.49,.16-1.03,.25-1.62,.3-.37-.08-.68-.16-.95-.25-.27-.09-.46-.18-.58-.28-.22-.12-.38-.3-.49-.55-.12-.24-.17-.53-.17-.85,0-.18,.04-.35,.11-.51,.08-.16,.17-.29,.27-.4,1.26-1.23,2.27-2.33,3.01-3.29,.75-.96,1.23-1.8,1.44-2.53l.21-.73c.11-.36,.19-.63,.24-.8,.04-.12,.06-.17,.08-.16-.06-.35-.11-.67-.15-.96-.09-.35-.19-.65-.29-.89-.1-.24-.2-.42-.31-.55-.15-.19-.34-.31-.58-.39-.24-.08-.54-.12-.92-.12-.27,0-.52,.03-.75,.07-.23,.05-.43,.1-.62,.16-.2,.15-.39,.29-.59,.41-.2,.12-.38,.25-.55,.39-.35,.42-.7,.85-1.05,1.26-.35,.42-.68,.8-1,1.15-.38,.62-.68,1.19-.93,1.69-.23,.5-.42,.92-.56,1.26-.12,.33-.23,.64-.33,.93-.1,.29-.17,.54-.21,.75-.02,.3-.05,.61-.09,.9-.05,.3-.09,.6-.14,.9-.44,.35-.8,.69-1.09,1.02-.29,.32-.52,.65-.71,.97,.24,.5,.44,.92,.59,1.26,.15,.33,.26,.62,.32,.84,.18-.23,.35-.4,.5-.51,.15-.11,.29-.17,.41-.17,.15,0,.29,.08,.41,.24,.12,.16,.25,.4,.39,.74,.17,.41,.33,.76,.48,1.06,.15,.3,.3,.52,.46,.67,.29,.32,.65,.56,1.08,.73,.43,.17,.93,.25,1.49,.25,.43,0,.79-.03,1.11-.1,.31-.07,.59-.18,.83-.33,.59,0,1.24-.21,1.95-.65,.71-.43,1.49-1.07,2.36-1.93,0,.11-.04,.3-.12,.57-.07,.28-.11,.47-.11,.59,0,.44,.02,.81,.08,1.12,.05,.3,.15,.56,.29,.77,.11,.2,.27,.41,.5,.63,.23,.22,.51,.45,.84,.7,.32,.23,.71,.49,1.17,.8,.15,.08,.34,.14,.57,.18,.23,.04,.49,.07,.78,.07,1.29,0,2.45-.19,3.45-.58,1.01-.39,1.9-.96,2.66-1.72,.17-.16,.37-.35,.62-.55,.74-.3,1.4-.69,1.98-1.17,.58-.48,1.15-.95,1.71-1.4v-.03c.12-.14,.22-.27,.27-.38,.06-.12,.11-.21,.14-.28,.26-.24,.49-.46,.69-.66,.21-.2,.38-.35,.54-.46,.09-.05,.26-.2,.52-.46,.26-.26,.6-.62,1.03-1.07,.35-.4,.65-.68,.9-.87,.25-.18,.45-.28,.6-.28,.17,0,.29,.03,.37,.09,.07,.06,.11,.14,.11,.25s-.01,.23-.04,.37c-.03,.15-.08,.32-.16,.52-.07,.22-.14,.38-.19,.51-.05,.13-.08,.23-.08,.31-.38,1.28-.71,2.4-1,3.35-.29,.96-.55,1.76-.78,2.4,.04,.42,.09,.85,.15,1.26,.05,.42,.38,.63,.99,.63,.31,0,.58-.03,.83-.1,.25-.07,.48-.19,.67-.35,.2-.18,.4-.37,.59-.56,.2-.19,.39-.38,.59-.58,.78-.79,1.42-1.47,1.94-2.05,.52-.58,.88-1.05,1.1-1.41,.11-.2,.31-.38,.62-.52,.3-.15,.8-.53,1.48-1.14,.32-.29,.61-.52,.9-.71,.28-.18,.57-.32,.86-.41l.21,.07c.33,.44,.63,.82,.88,1.15,.25,.33,.48,.59,.68,.79,.24,.49,.45,.89,.64,1.22,.18,.33,.33,.55,.46,.67,.23,.3,.5,.53,.82,.68,.32,.15,.65,.23,1,.23,.31,0,.61-.06,.91-.19,.31-.13,.63-.35,.98-.67,.26-.21,.52-.43,.8-.66,.28-.23,.52-.45,.78-.66,.14-.15,.24-.29,.3-.41,.06-.12,.11-.21,.16-.28,.54-.42,.95-.75,1.24-.98,.29-.23,.47-.34,.55-.34,.12,0,.22,.03,.29,.1,.07,.07,.1,.16,.1,.26s-.08,.46-.25,1.06c-.17,.6-.25,1.09-.25,1.45,0,.9,.35,1.71,1.05,2.44,.7,.73,1.48,1.09,2.35,1.09,.14,0,.32-.03,.54-.09,.22-.06,.37-.09,.45-.09,.26,0,.55-.05,.85-.15,.32-.1,.66-.24,1.04-.42,.66-.27,1.25-.62,1.79-1.04,.54-.42,1-.88,1.38-1.38,.14,.31,.32,.54,.55,.71,.23,.17,.52,.25,.87,.25,.3,0,.61-.06,.92-.19,.31-.13,.64-.33,.99-.62,.29-.21,.57-.43,.82-.66,.26-.23,.52-.47,.8-.71-.15-.35-.3-.7-.45-1.06Zm-59.49-5.01s-.06-.11-.06-.2c0-.41,.28-1.05,.85-1.92,.56-.88,1.01-1.31,1.34-1.31,.11,0,.19,.04,.24,.13,.05,.08,.08,.19,.08,.33,0,.21-.05,.43-.14,.64-.1,.21-.23,.42-.41,.64-.15,.17-.31,.34-.47,.51-.16,.18-.32,.34-.49,.49-.09,.15-.19,.31-.3,.49-.1,.17-.24,.26-.41,.26-.12,0-.2-.02-.24-.05Zm55.44,3c-.08,.3-.15,.56-.23,.76-.07,.2-.17,.35-.29,.44-.21,.26-.44,.53-.69,.82-.52,.78-1.07,1.36-1.65,1.74-.58,.39-1.23,.59-1.93,.59-.44,0-.77-.11-.98-.32-.21-.21-.32-.53-.32-.96,0-.23,.04-.51,.12-.84,.07-.33,.19-.74,.36-1.21,.16-.53,.33-.94,.5-1.22,.16-.29,.33-.43,.48-.45,.24-.05,.46-.12,.65-.22,.19-.1,.37-.23,.53-.42,.28-.41,.52-.79,.73-1.14,.14-.21,.28-.39,.42-.54,.14-.14,.25-.22,.33-.24,.48,.06,.86,.12,1.11,.17,.26,.05,.43,.1,.5,.15,.12,.06,.24,.22,.36,.49,.12,.27,.25,.63,.39,1.09l-.41,1.3Z"/><path class="cls-1" d="M317.32,197.28c0,.23,.06,.42,.18,.57,.12,.15,.26,.23,.41,.23,.3-.06,.55-.14,.73-.25,.09-.05,.18-.15,.26-.32,.08-.16,.19-.29,.33-.39,.07-.05,.21-.09,.42-.15,.21-.05,.35-.11,.42-.17,.18-.12,.34-.25,.47-.38,.13-.13,.29-.25,.47-.38,.18-.12,.35-.19,.51-.22,.16-.02,.33-.09,.51-.19,.1-.05,.21-.15,.36-.32,.14-.16,.27-.27,.38-.32,.17-.06,.33-.13,.48-.22,.15-.08,.3-.17,.43-.26,.23-.14,.43-.29,.6-.47s.31-.35,.4-.51c.09-.15,.16-.32,.21-.49,.05-.18,.08-.36,.08-.54s-.03-.39-.08-.62c-.05-.23-.12-.46-.21-.68-.05-.1-.11-.22-.18-.34-.07-.12-.15-.23-.23-.34-.11-.14-.22-.25-.34-.33-.12-.08-.26-.13-.41-.13-.24,0-.47,.07-.68,.21-.21,.14-.39,.34-.52,.62-.08,.16-.14,.37-.17,.6-.04,.24-.13,.47-.29,.69-.09,.14-.2,.28-.33,.42-.13,.15-.26,.29-.4,.42-.1,.09-.24,.2-.45,.33-.21,.13-.45,.31-.72,.56-.15,.14-.31,.29-.48,.45-.17,.16-.36,.33-.57,.51-.11,.09-.23,.24-.39,.45-.15,.21-.27,.36-.37,.45-.14,.14-.29,.27-.48,.41-.18,.14-.29,.26-.34,.36-.08,.14-.1,.27-.07,.39,.03,.12,.05,.24,.05,.34Z"/><path class="cls-1" d="M342.77,208.37c-.14-.34-.32-.74-.54-1.2-.1,.11-.22,.2-.33,.27-.11,.08-.2,.13-.26,.16-.11,.12-.21,.24-.31,.37-.1,.12-.2,.25-.31,.39-.14,.12-.27,.22-.4,.29-.13,.08-.26,.11-.4,.11-.45,0-.83-.19-1.11-.58-.28-.39-.41-.83-.4-1.31,0-.7,.01-1.43,.05-2.19-.03-.5-.13-.88-.3-1.13-.17-.25-.41-.38-.73-.38-.52,0-1.08,.2-1.69,.6-.61,.41-1.26,1.02-1.96,1.86-.14,.09-.26,.16-.37,.23-.11,.06-.21,.12-.32,.18-.14,.09-.37,.28-.7,.58-.33,.3-.75,.68-1.26,1.15-.44,.42-.85,.77-1.21,1.03-.36,.26-.71,.44-1.05,.55l-.16-.2c.44-.62,.8-1.13,1.07-1.51,.27-.38,.46-.62,.57-.73,.85-.75,1.53-1.39,2.04-1.92,.51-.53,.84-.96,1-1.3,.35-.26,.63-.49,.84-.68,.21-.2,.36-.33,.43-.41,.1-.15,.23-.33,.39-.52,.47-.35,.88-.71,1.23-1.06,.35-.36,.65-.7,.89-1.02,.44-.33,.85-.64,1.23-.91,.24-.17,.42-.37,.53-.62,.12-.24,.17-.52,.17-.84s-.09-.54-.29-.71c-.19-.17-.48-.25-.88-.25-.72,0-1.59,.33-2.64,.98-1.04,.65-2.26,1.64-3.64,2.94-.3,.29-.58,.52-.84,.69-.26,.17-.47,.31-.64,.4-.35,.3-.64,.57-.86,.8-.23,.23-.4,.42-.52,.57-.23,.11-.43,.23-.61,.36-.17,.14-.31,.31-.42,.5-.14,.24-.26,.43-.37,.56-.1,.13-.19,.23-.27,.31l-2.07,1.37c-.15,.26-.29,.48-.4,.65-.12,.17-.28,.32-.34,.38h0c-.23,.19-.47,.38-.71,.58-.25,.21-.49,.41-.72,.61-.31,.24-.6,.41-.89,.51-.29,.1-.57,.15-.85,.15-.23,0-.42-.03-.57-.1-.15-.06-.27-.18-.34-.33-.07-.09-.19-.45-.34-1.06-.15-.61-.29-1.07-.39-1.38-.06-.49-.14-.97-.23-1.45-.09-.48-.19-.95-.29-1.43-.12-.53-.37-.93-.73-1.2-.36-.26-.81-.4-1.35-.4-.2,0-.4,.05-.59,.16-.2,.11-.37,.28-.52,.52-.39,.57-1.11,1.3-2.14,2.2-1.03,.9-1.76,1.64-2.16,2.2l-.07,.23-.14,.16h0c-1.09,1.29-1.96,2.36-2.6,3.07-.65,.72-1.09,1.13-1.32,1.22-.2-.15-.38-.3-.52-.45-.15-.15-.28-.31-.39-.45-.42-.6-.76-1.08-1.02-1.45-.25-.38-.41-.61-.49-.72-.15-.31-.26-.67-.34-1.11-.08-.43-.12-.95-.12-1.54,.11-.4,.21-.75,.3-1.07,.29-.31,.56-.58,.81-.83,.25-.25,.49-.48,.72-.69,.5-.58,1.01-1.14,1.53-1.7,.52-.55,1.01-1.12,1.48-1.68,.76-.9,1.33-1.64,1.7-2.21,.38-.57,.56-1,.56-1.28,0-.74-.11-1.31-.33-1.69-.22-.38-.55-.57-.97-.57-.64,0-1.23,.17-1.79,.5-.55,.33-1.07,.85-1.54,1.55-.91,1.05-1.78,2.04-2.62,2.97-.59,.65-1.06,1.24-1.4,1.76-.33,.53-.55,1-.64,1.4-.23,.42-.43,.8-.61,1.11-.17,.31-.32,.6-.44,.86-.32,.42-.61,.78-.87,1.06-.26,.28-.49,.5-.69,.67-.23,.29-.42,.55-.57,.76-.15,.22-.28,.39-.39,.51h0c-.18,.15-.29,.26-.42,.34-.13,.07-.26,.12-.38,.12s-.22-.05-.3-.13c-.07-.08-.14-.22-.21-.42,.15-.14,.32-.36,.49-.66,.17-.31,.34-.69,.49-1.14,.14-.41,.24-.79,.3-1.14,.06-.35,.09-.65,.09-.91,0-1.37-.28-2.39-.83-3.07-.55-.68-1.39-1.02-2.5-1.02-.1,0-.35,.06-.73,.18-.38,.12-.9,.31-1.58,.57l-.14-.2c.17-.35,.33-.7,.48-1.05-.01-.16-.11-.27-.28-.36-.17-.08-.43-.12-.76-.12-.31,0-.59,.06-.85,.18-.26,.12-.51,.29-.75,.5-.21,.21-.42,.43-.63,.66-.21,.23-.42,.46-.65,.69-.19,.17-.38,.34-.59,.51-.22,.18-.43,.36-.64,.56-.24,.21-.45,.43-.63,.65-.17,.22-.3,.41-.38,.58-.65,.58-1.2,1.07-1.64,1.47-.44,.4-.77,.73-.98,1l-1.75,1.21c-.15,.22-.29,.41-.4,.58-.11,.17-.21,.3-.32,.41-.34,.3-.63,.58-.9,.8-.28,.22-.51,.39-.71,.51-.67,.23-1.2,.4-1.57,.5-.39,.11-.61,.16-.69,.16-1.17,0-2.05-.38-2.63-1.13-.59-.75-.88-1.87-.88-3.34,.5-.76,.99-1.56,1.46-2.4,.35-.52,.66-.97,.93-1.35,.27-.38,.5-.7,.66-.96,.14-.29,.26-.55,.37-.78,.1-.23,.2-.42,.29-.57,.21-.33,.4-.61,.55-.82,.15-.21,.27-.41,.36-.59,.18-.35,.33-.66,.43-.92,.11-.26,.18-.48,.23-.68,.16-.27,.32-.52,.47-.74,.14-.22,.26-.4,.35-.56,.23-.59,.43-1.14,.6-1.64,.16-.5,.3-.94,.41-1.32,.2-.42,.36-.79,.48-1.09,.12-.3,.21-.56,.27-.78l-.02-.32c.06-.12,.1-.24,.12-.37,0-.39,.08-.83,.25-1.3,.16-.47,.25-.84,.25-1.09s.04-.64,.12-1.15c.09-.51,.13-.89,.13-1.13,0-.94-.16-1.58-.49-1.93-.33-.34-.93-.51-1.81-.51-.44,0-.94,.31-1.49,.91-.56,.61-1.19,1.52-1.91,2.72-.53,.91-1.01,1.8-1.44,2.67-.42,.87-.77,1.7-1.02,2.49-.21,.47-.4,.89-.57,1.26-.17,.37-.33,.68-.48,.93-.46,1.41-.86,2.73-1.22,3.93-.36,1.21-.64,2.32-.83,3.34l.14,.43c-.11,.17-.23,.66-.37,1.48-.14,.82-.2,1.4-.2,1.75,.03,.12,.05,.28,.07,.48,0,.14,0,.24-.01,.32,0,.08-.04,.14-.1,.19l-1.51,1.32c-.23,.26-.41,.5-.55,.72-.14,.22-.28,.4-.41,.56l.91,2.1c.38-.35,.7-.66,.97-.93,.26-.28,.5-.51,.69-.71,.14,.14,.23,.26,.28,.36,.05,.11,.09,.23,.13,.37,.23,1.37,.62,2.39,1.17,3.08,.55,.68,1.26,1.02,2.11,1.02,.26,0,.64,.03,1.14,.08,.5,.05,.88,.08,1.12,.08,.47,0,.95-.1,1.44-.31,.48-.2,.96-.5,1.44-.9,.41-.35,.81-.71,1.21-1.07,.38-.35,.78-.74,1.16-1.08h0s.02-.02,.03-.03h.02v-.02c.11-.13,.19-.25,.25-.35,.06-.12,.12-.21,.16-.28,.53-.42,.94-.75,1.23-.98,.29-.23,.47-.34,.55-.34,.12,0,.22,.03,.29,.1,.07,.07,.1,.16,.1,.26s-.08,.46-.25,1.06c-.16,.6-.25,1.09-.25,1.45,0,.9,.35,1.71,1.05,2.44,.7,.73,1.48,1.09,2.35,1.09,.14,0,.32-.03,.54-.09,.22-.06,.37-.09,.44-.09,.26,0,.55-.05,.85-.15,.31-.1,.66-.24,1.04-.42,.66-.27,1.25-.62,1.79-1.04,.54-.42,1-.88,1.38-1.38,.14,.31,.32,.54,.55,.71,.23,.17,.52,.25,.86,.25,.31,0,.62-.06,.92-.19,.31-.13,.64-.33,.99-.62,.29-.21,.57-.43,.82-.66,.26-.23,.5-.47,.78-.71,.33-.35,.68-.69,1.03-1.03,.1,.2,.16,.34,.18,.44,.11,.71,.33,1.41,.67,2.1,.34,.68,.79,1.37,1.33,2.05,.52,.65,1.03,1.34,1.55,2.05,0,.2-.08,.42-.24,.68-.16,.26-.38,.53-.67,.82-.38,.41-.81,.88-1.3,1.42-.2,.3-.41,.61-.63,.91-.22,.3-.44,.62-.65,.93-.21,.38-.41,.74-.6,1.06-.19,.33-.34,.64-.45,.95-.2,.46-.34,.82-.42,1.08-.08,.27-.12,.45-.12,.54,0,.96,.02,1.73,.07,2.31,.04,.58,.11,.96,.19,1.16,.2,.41,.53,.72,1.01,.93,.48,.2,1.12,.3,1.93,.3,1.75,0,3.61-.88,5.58-2.62,1.97-1.75,3.05-3.5,3.23-5.24,.01-.22,.03-.41,.06-.57,.02-.17,.04-.29,.05-.37-.15-1.05-.37-1.94-.65-2.67-.28-.73-.62-1.32-1.02-1.78-.21-.24-.39-.46-.53-.66-.14-.2-.22-.37-.22-.52,.5-.73,1-1.42,1.48-2.05,.43-.61,.79-1.1,1.08-1.47,.3-.37,.5-.62,.61-.74,.59-.65,1.09-1.14,1.5-1.47,.41-.33,.74-.49,.98-.49,.09,0,.2,.09,.34,.26,.14,.17,.29,.44,.48,.79,.15,.22,.29,.42,.41,.59,.12,.17,.21,.31,.27,.43,.5,1.46,.96,2.35,1.37,2.67,.41,.32,1.31,.48,2.69,.48,.23,0,.57-.11,1-.33,.44-.22,.98-.56,1.6-1.02,.56-.41,1.04-.77,1.45-1.08,.39-.31,.74-.6,.99-.84h0c0,.13-.02,.29-.05,.49-.35,.35-.61,.71-.79,1.09-.17,.37-.26,.76-.26,1.17,0,.74,.17,1.3,.52,1.65,.35,.36,.89,.54,1.62,.54,.11,0,.27-.05,.5-.15,.23-.1,.5-.23,.82-.4,.5-.28,.95-.54,1.36-.8,.4-.25,.76-.51,1.06-.77,.15-.15,.41-.41,.78-.76,.36-.35,.81-.8,1.34-1.34,.4-.32,.74-.59,1.04-.82,.29-.23,.54-.42,.74-.58,.12-.14,.23-.25,.32-.33,.09-.09,.17-.17,.25-.24,.12,.15,.2,.3,.24,.45,.04,.14,.06,.29,.06,.42,.09,1.14,.4,2,.93,2.56,.53,.56,1.29,.84,2.28,.84,.43,0,.85-.09,1.28-.26,.43-.17,.87-.44,1.32-.79,.38-.3,.74-.63,1.09-.97,.34-.34,.69-.67,1.04-1-.07-.26-.19-.56-.33-.9Zm-66.94-9.62c.15-.53,.37-1.22,.66-2.08,.26-.56,.51-1.08,.75-1.55,.2-.4,.35-.72,.45-.97,.1-.25,.15-.43,.15-.54,0-.68,.21-1.39,.65-2.12,.43-.73,1.08-1.51,1.93-2.33l.16,.1c-.06,.29-.13,.58-.2,.87-.07,.3-.11,.6-.13,.9-.05,.38-.34,1.26-.86,2.65-.53,1.38-.92,2.24-1.17,2.58-.29,.5-.55,.94-.78,1.3-.23,.36-.41,.68-.52,.96-.26,.5-.49,.88-.69,1.14-.19,.26-.36,.4-.5,.41l-.14-.19c0-.23,.07-.61,.23-1.14Zm19.66,7.44c-.08,.3-.15,.56-.23,.76-.07,.2-.17,.35-.29,.44-.22,.26-.44,.53-.69,.82-.52,.78-1.07,1.36-1.65,1.74-.59,.39-1.23,.59-1.93,.59-.44,0-.77-.11-.98-.32-.21-.21-.32-.53-.32-.96,0-.23,.04-.51,.12-.84,.07-.33,.19-.74,.36-1.21,.17-.53,.33-.94,.5-1.22,.17-.29,.33-.43,.48-.45,.24-.05,.46-.12,.65-.22,.19-.1,.37-.23,.53-.42,.28-.41,.52-.79,.74-1.14,.14-.21,.28-.39,.42-.54,.14-.14,.25-.22,.33-.24,.48,.06,.86,.12,1.11,.17,.26,.05,.43,.1,.5,.15,.12,.06,.24,.22,.36,.49,.12,.27,.25,.63,.39,1.09l-.41,1.3Zm10.83,17.46c-1.23,1.27-2.43,1.9-3.6,1.9-.34,0-.58-.07-.74-.21-.16-.14-.24-.35-.24-.64,0-.16,.12-.56,.34-1.19,.23-.62,.4-1.02,.52-1.19,.35-.5,.69-1.01,1-1.53,.32-.52,.64-1.03,.96-1.53,.56-.84,1.01-1.47,1.33-1.9,.33-.42,.54-.64,.63-.64,.2,0,.39,.11,.57,.32,.18,.22,.37,.54,.57,.98,.15,.39,.27,.75,.36,1.08,.09,.33,.14,.61,.14,.85,0,1.17-.62,2.39-1.85,3.66Z"/><g><path class="cls-1" d="M364.73,198.22v.04s0-.04,0-.04Z"/><path class="cls-1" d="M387.17,207.18c-.14,.15-.29,.26-.45,.34-.16,.07-.34,.12-.54,.12-.26,0-.49-.12-.69-.34-.21-.23-.39-.58-.56-1.05-.27-.81-.56-1.68-.87-2.62-.26-.48-.57-.84-.93-1.07-.36-.23-.78-.34-1.25-.34-.24,0-.53,.06-.86,.18-.33,.12-.69,.29-1.11,.5-.36,.23-.68,.45-.96,.66-.27,.21-.51,.42-.71,.61-.14,.15-.26,.3-.36,.43-.1,.14-.18,.24-.24,.3-.27,.21-.52,.44-.74,.69-.22,.25-.4,.51-.54,.76-.35,.31-.65,.58-.9,.84-.25,.25-.44,.49-.56,.72-.09,.11-.17,.2-.24,.27-.07,.07-.14,.14-.22,.19-.11-.14-.16-.25-.16-.35,0-.08,.02-.19,.05-.34,.03-.15,.09-.33,.18-.52,.12-.28,.25-.57,.39-.87,.54-1.63,.95-2.94,1.21-3.92,.26-.99,.39-1.66,.39-2.01,0-.66-.13-1.15-.39-1.49-.26-.34-.66-.51-1.21-.51s-1.07,.12-1.55,.36c-.49,.24-.94,.62-1.37,1.12-.5,.56-.93,1.04-1.3,1.45-.36,.4-.67,.74-.91,1-.57,.64-1.04,1.18-1.44,1.63-.4,.45-.73,.83-1,1.13-.31,.31-.58,.57-.82,.8-.24,.23-.44,.4-.59,.52-.14,.19-.26,.34-.36,.47-.1,.13-.18,.24-.24,.35-.16,.14-.31,.25-.48,.33-.17,.08-.29,.15-.36,.19-.38,.22-.81,.4-1.3,.55-.49,.16-1.03,.25-1.62,.3-.37-.08-.68-.16-.95-.25-.26-.09-.46-.18-.58-.28-.21-.12-.37-.3-.49-.55-.11-.24-.17-.53-.17-.85,0-.18,.04-.35,.12-.51,.07-.16,.17-.29,.27-.4,1.26-1.23,2.27-2.33,3.01-3.29,.75-.96,1.23-1.8,1.44-2.53l.21-.73c.11-.36,.19-.63,.24-.8,.04-.12,.06-.17,.07-.16-.05-.35-.11-.67-.15-.96-.09-.35-.19-.65-.29-.89-.1-.24-.2-.42-.31-.55-.15-.19-.35-.31-.58-.39-.24-.08-.54-.12-.92-.12-.28,0-.52,.03-.76,.07-.23,.05-.43,.1-.61,.16-.2,.15-.4,.29-.59,.41-.2,.12-.38,.25-.55,.39-.35,.42-.7,.85-1.05,1.26-.35,.42-.68,.8-1,1.15-.38,.62-.69,1.19-.93,1.69-.24,.5-.42,.92-.56,1.26-.12,.33-.23,.64-.33,.93-.1,.29-.17,.54-.21,.75-.02,.3-.05,.61-.09,.9-.05,.3-.09,.6-.14,.9-.44,.35-.81,.69-1.1,1.02-.29,.32-.52,.65-.71,.97,.24,.5,.44,.92,.59,1.26,.15,.33,.26,.62,.32,.84,.18-.23,.35-.4,.5-.51,.15-.11,.29-.17,.41-.17,.15,0,.29,.08,.41,.24,.12,.16,.25,.4,.39,.74,.17,.41,.33,.76,.48,1.06,.15,.3,.31,.52,.46,.67,.29,.32,.65,.56,1.08,.73,.43,.17,.93,.25,1.49,.25,.43,0,.79-.03,1.11-.1,.31-.07,.59-.18,.83-.33,.59,0,1.24-.21,1.95-.65,.71-.43,1.5-1.08,2.36-1.93h.01v-.02c.13-.14,.22-.28,.28-.39,.06-.12,.1-.21,.14-.28,.26-.24,.49-.46,.69-.66,.21-.2,.38-.35,.54-.46,.09-.05,.26-.2,.52-.46,.26-.26,.6-.62,1.03-1.07,.35-.4,.65-.68,.9-.87,.25-.18,.45-.28,.6-.28,.16,0,.29,.03,.36,.09,.08,.06,.11,.14,.11,.25s-.02,.23-.04,.37c-.03,.15-.08,.32-.16,.52-.07,.22-.14,.38-.19,.51-.05,.13-.08,.23-.08,.31-.38,1.28-.71,2.4-1,3.35-.29,.96-.55,1.76-.78,2.4,.05,.42,.09,.85,.15,1.26,.05,.42,.38,.63,.99,.63,.3,0,.58-.03,.83-.1,.25-.07,.47-.19,.67-.35,.2-.18,.4-.37,.59-.56s.39-.38,.59-.58c.78-.79,1.42-1.47,1.94-2.05,.52-.58,.88-1.05,1.1-1.41,.1-.2,.31-.38,.61-.52,.3-.15,.8-.53,1.48-1.14,.32-.29,.62-.52,.9-.71,.28-.18,.57-.32,.85-.41l.21,.07c.33,.44,.63,.82,.88,1.15,.25,.33,.47,.59,.67,.79,.24,.49,.46,.89,.64,1.22,.18,.33,.33,.55,.46,.67,.23,.3,.5,.53,.82,.68,.32,.15,.65,.23,1.01,.23,.3,0,.61-.06,.91-.19,.31-.13,.63-.35,.98-.67,.26-.21,.52-.43,.8-.66,.27-.23,.54-.45,.8-.66l-.91-2.1Zm-28.14-3.98s-.06-.11-.06-.2c0-.41,.28-1.05,.84-1.92,.57-.88,1.01-1.31,1.35-1.31,.11,0,.19,.04,.24,.13,.05,.08,.08,.19,.08,.33,0,.21-.04,.43-.14,.64-.09,.21-.23,.42-.41,.64-.15,.17-.31,.34-.47,.51-.16,.18-.32,.34-.49,.49-.09,.15-.19,.31-.3,.49-.11,.17-.24,.26-.41,.26-.12,0-.2-.02-.24-.05Z"/></g><path class="cls-1" d="M446.88,208.3c-.15-.34-.32-.71-.5-1.13-.07,.04-.27,.2-.57,.46-.3,.26-.72,.63-1.26,1.12-.45,.41-.82,.72-1.09,.92-.27,.21-.46,.31-.57,.31-.12-.06-.2-.12-.23-.19,.18-.61,.34-1.12,.47-1.55,.13-.42,.26-.78,.38-1.07,.55-1.76,.87-2.81,.96-3.15s.24-1.27,.46-2.8c.06-.53,.12-.97,.17-1.33,.05-.35,.08-.6,.08-.75,0-.61-.17-1.07-.51-1.4-.34-.33-.85-.49-1.54-.49-.16,0-.34,.03-.51,.08-.17,.05-.36,.12-.56,.21-.6,.53-1.13,1.05-1.61,1.54-.48,.5-.91,.95-1.29,1.36-.33,.33-.63,.61-.88,.82-.25,.21-.48,.39-.67,.52-.12,.21-.24,.4-.37,.57-.12,.16-.24,.29-.34,.36-.31,.31-.58,.57-.82,.78-.24,.22-.45,.38-.61,.5-.05,.09-.14,.22-.28,.39-.06,.1-.23,.24-.51,.43-.28,.2-.67,.46-1.18,.78-.38,.24-.67,.49-.88,.73-.21,.24-.34,.47-.4,.68l-.14,.16c-.16,.06-.33,.12-.5,.16-.17,.05-.31,.06-.43,.06-.41,0-.72-.14-.91-.42-.2-.28-.3-.7-.3-1.26,0-.15-.03-.39-.1-.71-.06-.32-.1-.56-.1-.73,0-.43-.01-.77-.05-1.03-.03-.26-.07-.44-.12-.55-.09-.19-.25-.34-.49-.44-.23-.1-.55-.15-.94-.15-.44,0-.84,.18-1.2,.54-.36,.36-.68,.9-.97,1.63-.12,.17-.26,.33-.4,.5-.14,.17-.27,.31-.38,.43-.29,.41-.57,.83-.84,1.26-.49,.58-.9,1.08-1.24,1.51-.34,.42-.65,.78-.93,1.07-.3,.16-.57,.31-.8,.45-.23,.13-.42,.24-.57,.33-.15,.04-.27-.14-.36-.55-.08-.41-.12-1.04-.12-1.89,0-.45,.04-.96,.12-1.51,.08-.55,.2-1.15,.36-1.8,.15-.52,.31-1.04,.48-1.57,.16-.53,.31-1.07,.43-1.6,.14-.32,.26-.63,.36-.93,.06-.2,.12-.38,.16-.55,.05-.17,.07-.3,.07-.39,0-.28-.06-.48-.18-.63-.12-.14-.3-.21-.52-.21-.12,0-.35,.06-.68,.18-.34,.12-.81,.33-1.42,.62-.37,.47-.71,.95-1.04,1.45-.33,.5-.66,.97-1,1.43-.41,.46-.79,.91-1.15,1.37-.36,.45-.71,.91-1.04,1.37-.41,.5-.78,.94-1.11,1.31-.33,.38-.62,.67-.87,.88,0,.09-.02,.17-.06,.23-.04,.06-.09,.11-.15,.16-.08,.04-.24,.2-.55,.46-.31,.26-.72,.63-1.26,1.12-.46,.41-.82,.72-1.1,.92-.28,.21-.47,.31-.57,.31-.12-.06-.2-.12-.23-.19,.19-.61,.34-1.12,.47-1.55,.13-.42,.25-.78,.37-1.07,.55-1.76,.87-2.81,.96-3.15s.24-1.27,.45-2.8c.06-.53,.12-.97,.17-1.33,.05-.35,.08-.6,.08-.75,0-.61-.17-1.07-.51-1.4-.34-.33-.86-.49-1.54-.49-.17,0-.34,.03-.52,.08-.17,.05-.36,.12-.56,.21-.59,.53-1.13,1.05-1.61,1.54-.48,.5-.91,.95-1.29,1.36-.33,.33-.63,.61-.88,.82-.25,.21-.48,.39-.67,.52-.12,.21-.24,.4-.36,.57-.12,.16-.23,.29-.34,.36-.3,.31-.58,.57-.82,.78-.24,.22-.45,.38-.61,.5-.05,.09-.14,.22-.27,.39-.06,.1-.23,.24-.51,.43-.29,.2-.67,.46-1.18,.78-.38,.24-.67,.49-.88,.73-.21,.24-.34,.47-.4,.68l-.14,.16c.24,.5,.44,.92,.59,1.26,.15,.33,.26,.62,.32,.84,.15-.23,.29-.42,.4-.57,.12-.15,.2-.28,.26-.39,1.93-1.81,3.44-3.17,4.51-4.08,1.08-.91,1.72-1.37,1.92-1.37s.34,.05,.42,.15c.08,.1,.13,.25,.13,.45,0,.27-.02,.67-.05,1.19-.03,.52-.1,1.12-.21,1.83-.11,.81-.22,1.42-.33,1.83-.12,.42-.22,.63-.33,.63s-.21-.12-.31-.35c-.1-.24-.26-.36-.49-.36-.44,0-.83,.15-1.19,.45-.35,.29-.52,.67-.52,1.13,0,.08,.05,.31,.16,.71-.02,.11-.03,.23-.05,.37-.02,.14-.02,.26-.02,.39,0,.65,.07,1.25,.2,1.78,.14,.54,.32,1.01,.55,1.42-.02,.24,.01,.44,.09,.6,.08,.15,.19,.25,.36,.29,.27-.09,.53-.18,.78-.26,.24-.08,.49-.17,.73-.27,.15-.06,.32-.16,.51-.32,.19-.15,.39-.37,.6-.66l.43-.09c.49-.41,.93-.78,1.31-1.11,.39-.33,.69-.6,.92-.83,.5-.32,.96-.62,1.38-.89,.42-.27,.78-.52,1.1-.73,.14-.18,.29-.35,.45-.5,.16-.15,.34-.29,.54-.41,.18-.23,.33-.42,.43-.58,.11-.16,.18-.29,.23-.4l1.3-1.35,.14-.07c.11,0,.19,.12,.24,.34,.05,.23,.09,.56,.12,1-.03,.09-.02,.36,.03,.8,.04,.44,.14,1.06,.27,1.85,.12,.82,.4,1.44,.82,1.86,.43,.42,.99,.63,1.69,.63,.47,0,.97-.14,1.52-.42,.54-.28,1.08-.73,1.61-1.36,.43-.47,.85-.95,1.26-1.43,.41-.48,.82-.97,1.23-1.47,.2-.21,.39-.43,.56-.64,.17-.21,.33-.4,.47-.55,.15,.19,.28,.37,.38,.55,.1,.18,.16,.36,.19,.55,.23,.78,.59,1.36,1.07,1.76,.48,.4,1.11,.59,1.87,.59,.29,0,.72-.14,1.31-.42s1.33-.69,2.25-1.24c.15-.23,.29-.42,.4-.57,.11-.15,.2-.28,.26-.39,1.93-1.81,3.44-3.17,4.52-4.08,1.08-.91,1.72-1.37,1.92-1.37s.34,.05,.42,.15c.08,.1,.12,.25,.12,.45,0,.27-.01,.67-.04,1.19-.03,.52-.1,1.12-.21,1.83-.1,.81-.21,1.42-.33,1.83-.11,.42-.22,.63-.33,.63s-.21-.12-.31-.35c-.1-.24-.26-.36-.49-.36-.44,0-.83,.15-1.19,.45-.35,.29-.52,.67-.52,1.13,0,.08,.05,.31,.16,.71-.02,.11-.03,.23-.05,.37-.01,.14-.02,.26-.02,.39,0,.65,.07,1.25,.21,1.78,.14,.54,.32,1.01,.55,1.42-.01,.24,.02,.44,.09,.6,.08,.15,.2,.25,.37,.29,.27-.09,.53-.18,.77-.26,.24-.08,.49-.17,.73-.27,.15-.06,.32-.16,.51-.32,.19-.15,.39-.37,.61-.66l.43-.09c.49-.41,.93-.78,1.31-1.11,.38-.33,.69-.6,.92-.83,.5-.32,.96-.62,1.38-.89,.42-.27,.79-.52,1.11-.73,.14-.18,.29-.35,.45-.5,.16-.15,.33-.29,.53-.41-.11-.3-.23-.62-.38-.97Z"/><path class="cls-1" d="M557.47,208.3c-.15-.34-.32-.71-.5-1.13-.07,.04-.26,.2-.57,.46-.3,.26-.72,.63-1.26,1.12-.45,.41-.82,.72-1.09,.92-.28,.21-.47,.31-.57,.31-.12-.06-.19-.12-.23-.19,.18-.61,.34-1.12,.47-1.55,.13-.42,.25-.78,.37-1.07,.55-1.76,.87-2.81,.96-3.15s.25-1.27,.46-2.8c.06-.53,.12-.97,.17-1.33,.05-.35,.08-.6,.08-.75,0-.61-.17-1.07-.52-1.4-.34-.33-.85-.49-1.54-.49-.16,0-.34,.03-.51,.08-.17,.05-.36,.12-.56,.21-.59,.53-1.13,1.05-1.61,1.54-.48,.5-.91,.95-1.29,1.36-.34,.33-.63,.61-.88,.82-.25,.21-.48,.39-.67,.52-.12,.21-.24,.4-.36,.57-.12,.16-.24,.29-.34,.36-.31,.31-.58,.57-.82,.78-.24,.22-.45,.38-.61,.5-.05,.09-.14,.22-.28,.39-.06,.1-.23,.24-.51,.43-.28,.2-.67,.46-1.17,.78-.38,.24-.67,.49-.88,.73-.21,.24-.34,.47-.4,.68l-.14,.16c-.19,.15-.29,.26-.43,.34-.13,.07-.25,.12-.38,.12s-.22-.05-.3-.13c-.07-.08-.15-.22-.21-.42,.16-.14,.32-.36,.49-.66,.18-.31,.34-.69,.49-1.14,.14-.41,.24-.79,.3-1.14,.06-.35,.09-.65,.09-.91,0-1.37-.28-2.39-.83-3.07-.55-.68-1.39-1.02-2.49-1.02-.11,0-.35,.06-.73,.18-.38,.12-.9,.31-1.57,.57l-.14-.2c.17-.35,.33-.7,.48-1.05-.02-.16-.11-.27-.29-.36-.18-.08-.43-.12-.76-.12-.31,0-.59,.06-.85,.18-.26,.12-.51,.29-.75,.5-.21,.21-.42,.43-.63,.66-.21,.23-.42,.46-.65,.69-.18,.17-.38,.34-.59,.51-.21,.18-.42,.36-.64,.56-.24,.21-.45,.43-.63,.65-.18,.22-.3,.41-.38,.58-.66,.58-1.2,1.07-1.64,1.47-.44,.4-.77,.73-.98,1l-1.76,1.21c-.15,.22-.29,.41-.4,.58-.11,.17-.22,.31-.32,.41-.13,.14-.28,.28-.43,.35-.16,.07-.34,.12-.53,.12-.26,0-.49-.12-.7-.34-.21-.23-.39-.58-.56-1.05-.28-.81-.57-1.68-.87-2.62-.26-.48-.57-.84-.94-1.07-.36-.23-.78-.34-1.26-.34-.24,0-.53,.06-.85,.18-.33,.12-.7,.29-1.11,.5-.37,.23-.69,.45-.96,.66-.28,.21-.51,.42-.71,.61-.13,.15-.25,.3-.35,.43-.1,.14-.18,.24-.24,.3-.28,.21-.52,.44-.74,.69-.22,.25-.4,.51-.53,.76-.35,.31-.65,.58-.9,.84-.25,.25-.43,.49-.56,.72-.09,.11-.17,.2-.24,.27-.07,.07-.14,.14-.21,.19-.11-.14-.16-.25-.16-.35,0-.08,.01-.19,.05-.34,.03-.15,.09-.33,.18-.52,.12-.28,.25-.57,.39-.87,.55-1.63,.95-2.94,1.21-3.92,.26-.99,.39-1.66,.39-2.01,0-.66-.13-1.15-.39-1.49-.26-.34-.66-.51-1.21-.51s-1.07,.12-1.55,.36c-.48,.24-.94,.62-1.37,1.12-.5,.56-.93,1.04-1.3,1.45-.36,.4-.67,.74-.91,1-.57,.64-1.04,1.18-1.44,1.63-.4,.45-.73,.83-1,1.13-.31,.31-.58,.57-.82,.8-.24,.23-.44,.4-.59,.52-.14,.19-.26,.34-.36,.47-.09,.12-.16,.22-.22,.32h0c-.1,.11-.19,.23-.31,.3-.11,.08-.2,.13-.26,.16-.11,.12-.21,.24-.31,.37-.1,.12-.2,.25-.3,.39-.14,.12-.27,.22-.4,.29-.13,.08-.26,.11-.4,.11-.46,0-.83-.19-1.11-.58-.28-.39-.42-.83-.4-1.31,0-.7,.02-1.43,.05-2.19-.03-.5-.13-.88-.3-1.13-.16-.25-.41-.38-.73-.38-.52,0-1.08,.2-1.69,.6-.61,.41-1.26,1.02-1.96,1.86-.14,.09-.26,.16-.37,.23-.1,.06-.21,.12-.32,.18-.14,.09-.37,.28-.69,.58-.33,.3-.75,.68-1.27,1.15-.44,.42-.84,.77-1.21,1.03-.36,.26-.72,.44-1.05,.55l-.16-.2c.44-.62,.8-1.13,1.07-1.51,.28-.38,.46-.62,.57-.73,.85-.75,1.53-1.39,2.04-1.92,.51-.53,.84-.96,.99-1.3,.35-.26,.63-.49,.84-.68,.22-.2,.36-.33,.43-.41,.11-.15,.24-.33,.39-.52,.47-.35,.88-.71,1.23-1.06,.35-.36,.65-.7,.89-1.02,.44-.33,.85-.64,1.23-.91,.24-.17,.42-.37,.54-.62,.11-.24,.17-.52,.17-.84s-.1-.54-.28-.71c-.19-.17-.48-.25-.88-.25-.71,0-1.59,.33-2.63,.98-1.04,.65-2.26,1.64-3.64,2.94-.31,.29-.59,.52-.85,.69-.26,.17-.47,.31-.64,.4-.35,.3-.64,.57-.86,.8-.23,.23-.4,.42-.52,.57-.23,.11-.43,.23-.61,.36-.17,.14-.31,.31-.42,.5-.14,.24-.26,.43-.36,.56-.11,.13-.2,.23-.28,.31l-2.07,1.37c-.15,.26-.29,.48-.4,.65-.11,.17-.25,.3-.32,.36-.07,.06-.15,.11-.22,.14-.07,.04-.15,.06-.23,.06-.35,0-.76-.3-1.22-.9-.46-.6-.99-1.51-1.58-2.73-.09-.18-.25-.4-.48-.65-.23-.25-.52-.53-.87-.83-.07-.06-.15-.12-.23-.16-.07-.05-.15-.07-.23-.07-.42,0-.86,.09-1.3,.26-.44,.17-.87,.43-1.3,.76-.41,.31-.79,.6-1.14,.89-.35,.29-.7,.58-1.05,.87-.21,.31-.4,.56-.56,.75-.16,.2-.3,.35-.42,.46-.18-.09-.27-.19-.27-.3,0-.09,0-.19,.02-.3,.02-.1,.05-.23,.12-.39,.34-.79,.57-1.62,.71-2.47,.14-.86,.21-1.75,.21-2.68,0-.64-.1-1.12-.31-1.45-.2-.32-.53-.49-.97-.49-.41,0-.96,.25-1.64,.74-.69,.5-1.48,1.24-2.4,2.25-1.07,1.17-1.92,2.09-2.58,2.74-.65,.65-1.1,1.03-1.32,1.14-.11,0-.19-.03-.23-.08-.05-.05-.07-.13-.07-.24,.09-.38,.2-.78,.34-1.19,.12-.52,.22-1.02,.29-1.52,.07-.49,.1-.95,.1-1.38,0-.5-.1-.88-.3-1.15-.2-.26-.5-.4-.91-.4-.66,.27-1.26,.52-1.81,.73-.55,.56-1.03,1.06-1.44,1.49-.41,.43-.76,.79-1.05,1.06-.57,.52-1.16,1.11-1.79,1.77-.63,.66-1.28,1.41-1.95,2.25-.15,.22-.29,.41-.41,.58-.12,.17-.23,.31-.32,.42,.24,.5,.44,.92,.59,1.26,.15,.33,.26,.62,.32,.84,.09-.1,.18-.22,.25-.33,.08-.11,.14-.23,.18-.36,.44-.42,.82-.8,1.12-1.11,.3-.32,.57-.6,.78-.85,.32-.44,.61-.76,.86-.97,.25-.21,.47-.31,.65-.31,.1,0,.19,.04,.26,.1,.07,.07,.1,.16,.1,.26,0,.65-.27,1.78-.81,3.37-.54,1.59-.81,2.63-.81,3.13,0,.21,.12,.37,.36,.48,.24,.11,.58,.16,1.04,.16,.15,0,.5-.25,1.04-.76,.54-.51,1.27-1.29,2.18-2.36,.58-.64,1.14-1.27,1.7-1.9,.55-.63,1.1-1.25,1.63-1.86,.49-.36,.84-.64,1.06-.84,.22-.2,.42-.4,.6-.59,.17-.15,.31-.26,.45-.33,.13-.07,.25-.1,.36-.1,.12,0,.23,.04,.32,.14,.09,.09,.14,.22,.14,.38-.14,.96-.25,1.73-.33,2.31-.08,.57-.15,.96-.19,1.16-.02,.15-.09,.42-.21,.8-.12,.38-.28,.89-.48,1.53-.15,.5-.27,.94-.36,1.31-.09,.37-.14,.67-.14,.9,0,.2,.03,.37,.09,.52,.06,.14,.15,.23,.27,.28,.38,.05,.68,.07,.91,.07,.45,0,1.6-1.16,3.44-3.5,1.84-2.33,3.15-3.5,3.94-3.5,.59,0,1.45,.68,2.56,2.04,1.12,1.36,2.2,2.04,3.25,2.04,.32,0,.69-.11,1.12-.33,.41-.21,.97-.6,1.5-1,0,.01,0,.02,0,.03,0,.12-.01,.28-.05,.48-.35,.35-.61,.71-.78,1.09-.18,.37-.26,.76-.26,1.17,0,.74,.17,1.3,.52,1.65,.35,.36,.89,.54,1.62,.54,.11,0,.28-.05,.5-.15,.23-.1,.5-.23,.82-.4,.5-.28,.95-.54,1.36-.8,.4-.25,.76-.51,1.06-.77,.15-.15,.41-.41,.78-.76,.36-.35,.81-.8,1.35-1.34,.39-.32,.74-.59,1.04-.82,.3-.23,.55-.42,.74-.58,.12-.14,.23-.25,.32-.33,.09-.09,.17-.17,.25-.24,.12,.15,.2,.3,.23,.45,.04,.14,.06,.29,.06,.42,.1,1.14,.41,2,.94,2.56,.53,.56,1.29,.84,2.28,.84,.42,0,.85-.09,1.28-.26,.42-.17,.87-.44,1.33-.79,.38-.3,.74-.63,1.08-.97,.34-.34,.69-.67,1.04-1,.14-.15,.23-.29,.3-.41,.06-.12,.11-.21,.14-.28,.26-.24,.49-.46,.7-.66,.2-.2,.38-.35,.54-.46,.09-.05,.26-.2,.52-.46,.26-.26,.6-.62,1.02-1.07,.35-.4,.65-.68,.9-.87,.25-.18,.45-.28,.61-.28,.16,0,.29,.03,.36,.09,.08,.06,.11,.14,.11,.25s-.01,.23-.04,.37c-.03,.15-.08,.32-.16,.52-.08,.22-.14,.38-.2,.51-.05,.13-.08,.23-.08,.31-.38,1.28-.71,2.4-1,3.35-.29,.96-.55,1.76-.78,2.4,.05,.42,.1,.85,.15,1.26,.05,.42,.38,.63,1,.63,.3,0,.58-.03,.83-.1,.25-.07,.48-.19,.67-.35,.2-.18,.39-.37,.59-.56,.2-.19,.4-.38,.59-.58,.77-.79,1.42-1.47,1.94-2.05,.52-.58,.88-1.05,1.09-1.41,.11-.2,.31-.38,.61-.52,.31-.15,.8-.53,1.48-1.14,.32-.29,.62-.52,.9-.71,.28-.18,.57-.32,.86-.41l.21,.07c.33,.44,.62,.82,.88,1.15,.25,.33,.48,.59,.67,.79,.24,.49,.45,.89,.64,1.22,.18,.33,.33,.55,.45,.67,.23,.3,.5,.53,.82,.68,.32,.15,.65,.23,1,.23,.3,0,.61-.06,.91-.19,.31-.13,.63-.35,.98-.67,.26-.21,.53-.43,.8-.66,.26-.22,.52-.46,.77-.66h0l.02-.02h0c.12-.15,.21-.28,.27-.39,.06-.12,.12-.21,.16-.28,.53-.42,.94-.75,1.23-.98,.29-.23,.47-.34,.55-.34,.12,0,.22,.03,.29,.1,.07,.07,.1,.16,.1,.26s-.09,.46-.25,1.06c-.17,.6-.25,1.09-.25,1.45,0,.9,.35,1.71,1.05,2.44,.7,.73,1.48,1.09,2.35,1.09,.14,0,.31-.03,.54-.09,.22-.06,.37-.09,.45-.09,.26,0,.54-.05,.85-.15,.31-.1,.66-.24,1.04-.42,.65-.27,1.25-.62,1.79-1.04,.54-.42,1-.88,1.38-1.38,.14,.31,.32,.54,.55,.71,.23,.17,.52,.25,.87,.25,.3,0,.61-.06,.93-.19,.31-.13,.64-.33,.99-.62,.29-.21,.56-.43,.82-.66,.26-.23,.48-.46,.75-.71,0,0,.04-.05,.04-.05,.14-.2,.28-.38,.38-.52,.12-.15,.2-.28,.26-.39,1.93-1.81,3.43-3.17,4.51-4.08,1.08-.91,1.72-1.37,1.92-1.37s.34,.05,.42,.15c.08,.1,.13,.25,.13,.45,0,.27-.02,.67-.05,1.19-.03,.52-.1,1.12-.21,1.83-.11,.81-.22,1.42-.33,1.83-.12,.42-.22,.63-.33,.63s-.21-.12-.31-.35c-.1-.24-.26-.36-.49-.36-.44,0-.83,.15-1.19,.45-.35,.29-.52,.67-.52,1.13,0,.08,.05,.31,.16,.71-.02,.11-.03,.23-.05,.37-.02,.14-.03,.26-.03,.39,0,.65,.07,1.25,.21,1.78,.14,.54,.32,1.01,.55,1.42-.01,.24,.02,.44,.09,.6,.07,.15,.19,.25,.36,.29,.27-.09,.53-.18,.78-.26,.24-.08,.49-.17,.73-.27,.15-.06,.32-.16,.51-.32,.19-.15,.39-.37,.6-.66l.43-.09c.49-.41,.92-.78,1.31-1.11,.38-.33,.69-.6,.92-.83,.5-.32,.96-.62,1.38-.89,.42-.27,.79-.52,1.11-.73,.14-.18,.29-.35,.45-.5,.16-.15,.34-.29,.54-.41-.11-.3-.23-.62-.39-.97Zm-18.36-2.11c-.07,.3-.15,.56-.23,.76-.08,.2-.18,.35-.3,.44-.22,.26-.44,.53-.69,.82-.52,.78-1.07,1.36-1.65,1.74-.59,.39-1.23,.59-1.93,.59-.44,0-.77-.11-.98-.32-.21-.21-.32-.53-.32-.96,0-.23,.04-.51,.12-.84,.07-.33,.2-.74,.36-1.21,.17-.53,.33-.94,.5-1.22,.16-.29,.33-.43,.48-.45,.24-.05,.46-.12,.65-.22,.19-.1,.37-.23,.54-.42,.27-.41,.52-.79,.73-1.14,.14-.21,.28-.39,.42-.54,.14-.14,.25-.22,.33-.24,.49,.06,.86,.12,1.12,.17,.26,.05,.43,.1,.5,.15,.12,.06,.24,.22,.36,.49,.12,.27,.25,.63,.39,1.09l-.41,1.3Z"/></g></svg>